<svg id=first-waypoint width=472 height=374 viewBox="0 0 472 374" fill=none xmlns=http://www.w3.org/2000/svg class=start>
 <path class=path2 fill=transparent stroke=#000000 stroke-width=1 d="M28.3458 368.525C28.3458 368.525 5.96188 229.731 24.0746 209.157C42.2665 188.583 89.4862 172.757 97.9494 172.203C106.413 171.57 164.627 174.656 181.553 184.943C198.479 195.23 190.649 178.771 175.463 172.124C160.276 165.477 113.689 158.276 103.961 163.736C94.2319 169.196 84.5823 178.85 100.322 178.85C116.062 178.85 168.186 177.03 199.666 191.59C231.145 206.15 252.343 211.61 270.535 247.377C288.727 283.144 302.647 316.458 300.195 326.745"></path>
 <path class=path1 fill=transparent stroke=#000000 stroke-width=1 d="M251.315 348.743C251.315 348.743 221.97 300.631 233.597 252.758C245.224 204.884 256.772 226.011 256.772 226.011C256.772 226.011 257.721 234.558 230.908 227.911C204.095 221.264 58.6391 196.417 34.436 209.157"></path>
 <path class=path2 fill=transparent stroke=#000000 stroke-width=1 d="M100.48 158.83C100.48 158.83 60.4583 130.343 61.7238 77.0086C62.9894 23.6747 109.576 6.10777 125.316 5.47472C141.056 4.84168 202.276 15.7617 204.095 39.4217C205.914 63.0817 198.637 61.2617 198.005 64.2686C197.372 67.2756 204.649 71.5486 204.332 86.1086C204.016 100.669 198.558 165.318 182.818 161.757C167.078 158.196 164.073 123.063 162.807 109.136C161.621 95.2086 170.084 77.6417 178.547 83.6556C180.683 85.1591 182.423 88.166 183.847 91.806C187.96 102.647 188.434 119.106 183.451 118.236C176.807 117.049 178.389 100.59 191.361 91.5686C204.332 82.5478 196.818 78.1956 191.361 68.5417C185.903 58.8878 191.993 58.1756 194.999 43.0617C198.005 27.9478 170.163 13.3878 142.322 14.5747C114.48 15.7617 66.5486 40.6878 72.0062 80.0947C77.4638 119.502 96.2093 151.629 105.305 152.816C114.401 154.003 165.022 165.16 175.621 172.123"></path>
 <path class=path2 fill=transparent stroke=#000000 stroke-width=1 d="M176.412 96.3958C176.412 96.3958 169.926 47.4932 150.548 30.1636C131.169 12.8341 102.062 13.6254 90.3563 15.6036C78.6502 17.5819 92.4127 7.4532 103.723 5.47494C115.034 3.49667 153.79 6.74102 170.4 33.8036C187.01 60.8662 190.174 101.302 190.174 101.302C190.174 101.302 193.022 118.236 188.592 120.293C184.163 122.351 176.253 109.057 182.739 101.144C189.225 93.2306 194.683 88.7993 199.507 101.698C204.332 114.596 199.112 142.529 184.558 130.818C170.005 119.106 169.214 99.3236 180.525 90.7775C191.835 82.3106 201.247 97.2662 201.247 97.2662"></path>
 <path class=path1 fill=transparent stroke=#000000 stroke-width=1 d="M199.507 124.566C199.507 124.566 224.739 126.624 225.767 132.242C226.874 137.86 218.49 135.961 216.908 133.587C215.326 131.213 217.146 126.307 220.942 126.307C224.739 126.307 226.321 131.926 219.36 131.926C212.321 131.926 197.767 128.681 197.767 128.681"></path>
 <path class=path2 fill=transparent stroke=#000000 stroke-width=1 d="M216.829 180.67C216.829 180.67 434.341 213.43 443.99 213.43C453.719 213.43 454.273 80.0948 452.453 58.2548C450.634 36.4148 462.182 31.5878 387.042 31.5878C311.901 31.5878 222.287 13.3878 216.829 26.1278C211.372 38.8678 212.004 163.577 214.377 172.124C216.829 180.67 444.623 205.596 444.623 205.596"></path>
 <path class=path3 fill=transparent stroke=#000000 stroke-width=1 d="M367.347 58.1756C361.415 56.593 340.692 49.6295 314.274 54.3773C295.687 57.7008 253.45 97.5826 280.263 144.111C327.8 196.416 376.206 156.297 383.957 122.113C388.465 105.654 378.025 67.5921 355.72 59.9956C355.72 59.9956 336.342 62.4486 331.992 68.3834C327.641 74.3182 317.675 68.146 317.28 66.2469C316.884 64.3478 312.613 63.7939 310.715 66.0095C308.817 68.146 303.676 75.7426 300.749 75.9799C297.823 76.2173 297.269 79.9365 298.297 81.2026C299.404 82.4686 307.472 82.3895 312.06 81.2026C316.647 80.0156 322.026 86.5043 320.444 88.6408C318.862 90.7773 307.551 88.4034 302.647 88.0869C297.823 87.8495 291.574 90.2234 291.574 94.813C291.574 99.4026 288.331 105.575 288.331 107.236C288.331 108.898 286.196 114.279 291.811 114.754C297.427 115.308 305.257 123.142 306.048 131.45C306.839 139.759 310.873 148.384 314.433 148.384C317.992 148.384 326.613 134.378 327.8 127.098C328.986 119.818 331.122 119.185 333.336 116.257C335.472 113.33 333.336 110.085 335.472 106.603C337.607 103.122 340.613 97.6617 345.991 101.618C351.37 105.575 348.127 110.876 353.268 110.639C358.409 110.402 352.952 113.725 361.336 110.639C369.72 107.553 374.228 103.122 374.228 98.2947C374.228 93.4678 369.641 88.0869 368.059 89.4321C366.477 90.7773 370.511 106.92 372.33 113.171C374.228 119.343 375.573 124.091 371.223 125.199C366.952 126.386 347.415 139.522 348.918 143.557"></path>
 </svg>